<svg width="24" height="24" viewBox="0 0 24 24" fill="none" xmlns="http://www.w3.org/2000/svg">
<path fill-rule="evenodd" clip-rule="evenodd" d="M1.2876 6.61897C1.77502 5.5432 2.46318 4.60279 3.27192 3.75262C5.09847 1.82927 7.31239 0.59752 9.92652 0.177269C13.588 -0.411211 16.8684 0.457006 19.7 2.9089C19.8789 3.06424 19.9232 3.15448 19.7288 3.34591C18.7283 4.33015 17.7445 5.3305 16.7543 6.32505C16.6529 6.42689 16.5843 6.55129 16.4041 6.38564C13.9093 4.08844 9.83737 4.11487 7.18733 6.5919C6.294 7.43033 5.6145 8.47247 5.20622 9.63034C5.14208 9.58973 5.07795 9.55363 5.02087 9.50852L1.2876 6.61897Z" fill="#D7282A"/>
<path fill-rule="evenodd" clip-rule="evenodd" d="M5.17657 14.3215C5.53444 15.2342 5.97889 16.0973 6.63884 16.8301C8.3183 18.6942 10.4033 19.4969 12.8939 19.2382C14.0521 19.117 15.1084 18.7226 16.0948 18.1167C16.1891 18.2018 16.2795 18.2926 16.3789 18.3713C17.5334 19.2771 18.6889 20.1818 19.8454 21.0855C18.5931 22.2813 17.0517 23.1278 15.374 23.5413C11.3835 24.5577 7.70539 23.9132 4.43902 21.324C3.09632 20.2658 2.01455 18.9106 1.27783 17.3638L5.17657 14.3215Z" fill="#45AC43"/>
<path fill-rule="evenodd" clip-rule="evenodd" d="M19.8457 21.0852C18.6913 20.1803 17.5358 19.2755 16.3792 18.371C16.2798 18.2924 16.1868 18.2015 16.0951 18.1164C16.8775 17.5163 17.5304 16.8067 17.9588 15.9049C18.1223 15.5439 18.2576 15.1707 18.3635 14.7886C18.4418 14.5262 18.4174 14.4237 18.0948 14.427C16.1708 14.4431 14.2467 14.4347 12.3227 14.4347C11.9154 14.4347 11.9154 14.4347 11.9154 14.0112C11.9154 12.7008 11.9212 11.3911 11.9097 10.0794C11.9097 9.82676 11.9514 9.73007 12.2342 9.73072C15.783 9.74103 19.3317 9.74103 22.8805 9.73072C23.0729 9.73072 23.1922 9.7449 23.2256 9.97887C23.6668 13.0972 23.3128 16.0764 21.6863 18.8286C21.1906 19.6756 20.5935 20.4445 19.8457 21.0852Z" fill="#5D7FBE"/>
<path fill-rule="evenodd" clip-rule="evenodd" d="M5.17655 14.3213L1.27781 17.3637C0.642238 16.1783 0.277313 14.904 0.106074 13.5769C-0.19151 11.2797 0.135576 9.06628 1.10593 6.95664C1.15916 6.84062 1.2265 6.73169 1.28743 6.6189L5.0207 9.50844C5.07906 9.55356 5.14448 9.58966 5.20605 9.63026C4.68271 11.1907 4.71093 12.7551 5.17655 14.3213Z" fill="#F4C300"/>
</svg>
