<svg width="209" height="171" viewBox="0 0 209 171" fill="none" xmlns="http://www.w3.org/2000/svg">
<path d="M11.8412 148.035V139.86H19.6999L20.7619 133.319H11.8412V128.467H9.77029L0 137.064V139.86H3.98245V149.564C3.98245 154.733 7.00912 157.634 13.2217 157.634C15.3457 157.634 17.3104 157.16 19.0096 156.316L20.5495 148.668C18.9034 149.828 16.8325 150.725 14.4961 150.725C12.9562 150.725 11.8412 149.881 11.8412 148.035Z" fill="#0C1523"/>
<path d="M39.9179 132.845C36.9974 132.845 34.6079 134.216 32.8026 136.326V119.87H24.9438V157.212H32.8026V142.391C33.7583 140.492 35.192 139.49 36.8912 139.49C39.2807 139.49 40.1303 141.125 40.1303 143.288V157.212H47.989V141.495C47.989 135.64 44.1658 132.845 39.9179 132.845Z" fill="#0C1523"/>
<path d="M68.906 133.319V148.088C67.9502 149.986 66.5165 151.041 64.8173 151.041C62.4279 151.041 61.5783 149.406 61.5783 147.244V133.319H53.7196V149.037C53.7196 154.892 57.5427 157.687 61.7907 157.687C64.7111 157.687 67.1006 156.316 68.906 154.206V157.212H76.7647V133.319H68.906Z" fill="#0C1523"/>
<path d="M98.8499 133.003C95.4515 132.686 92.5842 134.11 90.6726 137.328V133.319H82.8139V157.212H90.6726V144.132C92.7966 141.389 96.5135 139.912 99.965 140.545L98.8499 133.003Z" fill="#0C1523"/>
<path d="M112.795 157.74C119.379 157.74 122.99 154.575 122.99 149.986C122.99 145.45 119.486 143.974 115.238 142.76C111.255 141.6 109.981 141.284 109.981 140.281C109.981 139.49 110.83 139.016 113.167 139.016C116.034 139.016 119.167 139.912 121.769 141.336L120.813 134.638C118.955 133.583 116.3 132.845 112.795 132.845C106.105 132.845 102.706 136.115 102.706 140.492C102.706 144.923 105.945 146.505 110.777 147.929C113.857 148.826 115.716 149.195 115.716 150.303C115.716 151.094 114.866 151.569 112.689 151.569C109.45 151.569 104.99 150.039 102.388 147.718L103.556 155.419C106.476 156.949 109.503 157.74 112.795 157.74Z" fill="#0C1523"/>
<path d="M143.969 119.87V135.271C142.588 133.952 140.464 132.845 137.437 132.845C130.694 132.845 126.446 138.752 126.446 145.292C126.446 151.78 130.694 157.74 137.437 157.74C140.092 157.74 142.535 156.368 144.234 154.417V157.74L151.827 156.527V119.87H143.969ZM139.561 150.936C136.588 150.936 134.411 148.404 134.411 145.292C134.411 142.128 136.588 139.649 139.561 139.649C141.314 139.649 143.013 140.598 143.969 142.286V148.14C142.96 149.934 141.367 150.936 139.561 150.936Z" fill="#0C1523"/>
<path d="M168.573 132.792C165.121 132.792 162.466 133.478 160.555 134.321L158.802 141.653C161.829 140.123 164.537 139.49 167.405 139.49C169.794 139.49 171.015 140.281 171.015 142.339V143.077C167.936 143.341 164.484 143.763 162.254 144.396C158.855 145.345 156.201 147.296 156.201 151.252C156.201 154.681 159.227 157.74 163.422 157.74C166.874 157.74 169.475 156.157 171.493 154.1V157.792L178.449 156.421V141.336C178.449 135.798 174.52 132.792 168.573 132.792ZM164.059 149.934C164.059 148.615 165.068 148.14 166.82 147.718C167.67 147.507 169.422 147.296 171.015 147.138V150.461C169.635 151.358 168.254 152.043 166.661 152.043C165.227 152.043 164.059 151.358 164.059 149.934Z" fill="#0C1523"/>
<path d="M200.876 133.319C198.327 138.699 196.256 144.132 195.194 147.085C194.291 144.343 192.858 140.756 189.406 133.319H180.645L191.318 155.261L184.521 170.24H192.486L209 133.319H200.876Z" fill="#0C1523"/>
<path d="M98.4696 39.8285V72.3459C98.4696 78.7607 102.321 81.6932 107.639 81.6932C110.467 81.6932 113.182 81.3105 115.761 80.6398L123.034 101.217C117.21 104.089 110.493 105.703 103.238 105.703C81.7812 105.703 71.3279 95.6225 71.3279 77.6611V39.8285H57.5737V30.1147L91.3174 0.23999H98.4696V17.1018H120.996L115.761 39.8285H98.4696Z" fill="#0C1523"/>
<path d="M129.3 71.4633L126.606 74.8309L141.875 85.2399L145.767 76.6678L129.3 71.4633Z" fill="#0C1523"/>
<path d="M125.4 45.1083L128.103 48.1963L142.27 37.5222L135.643 30.9343L125.4 45.1083Z" fill="#0C1523"/>
<path d="M131.696 57.2667L131.995 61.5528L151.426 60.4579L149.312 51.2577L131.696 57.2667Z" fill="#0C1523"/>
</svg>
