<svg width="24" height="24" viewBox="0 0 24 24" fill="none" xmlns="http://www.w3.org/2000/svg">
<path d="M12 14C17.5227 14 22 16.0893 22 18.6667V22H2V18.6667C2 16.0893 6.47733 14 12 14Z" fill="#0C1523"/>
<path d="M12 2C13.2377 2 14.4247 2.49167 15.2998 3.36684C16.175 4.242 16.6667 5.42899 16.6667 6.66667C16.6667 7.90434 16.175 9.09133 15.2998 9.9665C14.4247 10.8417 13.2377 11.3333 12 11.3333C10.7623 11.3333 9.57534 10.8417 8.70017 9.9665C7.825 9.09133 7.33333 7.90434 7.33333 6.66667C7.33333 5.42899 7.825 4.242 8.70017 3.36684C9.57534 2.49167 10.7623 2 12 2Z" fill="#0C1523"/>
</svg>
