<svg width="24" height="24" viewBox="0 0 24 24" fill="none" xmlns="http://www.w3.org/2000/svg">
<path d="M15.5 10C14.837 10 14.2011 10.2634 13.7322 10.7322C13.2634 11.2011 13 11.837 13 12.5C13 13.163 13.2634 13.7989 13.7322 14.2678C14.2011 14.7366 14.837 15 15.5 15C16.163 15 16.7989 14.7366 17.2678 14.2678C17.7366 13.7989 18 13.163 18 12.5C18 11.837 17.7366 11.2011 17.2678 10.7322C16.7989 10.2634 16.163 10 15.5 10Z" fill="#0C1523"/>
<path fill-rule="evenodd" clip-rule="evenodd" d="M5 3C4.20435 3 3.44129 3.31607 2.87868 3.87868C2.31607 4.44129 2 5.20435 2 6V19C2 19.7956 2.31607 20.5587 2.87868 21.1213C3.44129 21.6839 4.20435 22 5 22H18C18.7956 22 19.5587 21.6839 20.1213 21.1213C20.6839 20.5587 21 19.7956 21 19V17.23C21.3138 16.9493 21.5651 16.6057 21.7374 16.2214C21.9097 15.8372 21.9991 15.4211 22 15V10C21.9991 9.57893 21.9097 9.16276 21.7374 8.77855C21.5651 8.39435 21.3138 8.05071 21 7.77V6C21 5.20435 20.6839 4.44129 20.1213 3.87868C19.5587 3.31607 18.7956 3 18 3H5ZM13 8H19C19.5304 8 20.0391 8.21071 20.4142 8.58579C20.7893 8.96086 21 9.46957 21 10V15C21 15.5304 20.7893 16.0391 20.4142 16.4142C20.0391 16.7893 19.5304 17 19 17H13C12.4696 17 11.9609 16.7893 11.5858 16.4142C11.2107 16.0391 11 15.5304 11 15V10C11 9.46957 11.2107 8.96086 11.5858 8.58579C11.9609 8.21071 12.4696 8 13 8Z" fill="#0C1523"/>
</svg>
