<svg width="24" height="24" viewBox="0 0 24 24" fill="none" xmlns="http://www.w3.org/2000/svg">
<path d="M12 14C17.5227 14 22 16.0893 22 18.6667V22H2V18.6667C2 16.0893 6.47733 14 12 14ZM20.6667 18.6667C20.6667 16.8267 16.7867 15.3333 12 15.3333C7.21333 15.3333 3.33333 16.8267 3.33333 18.6667V20.6667H20.6667V18.6667ZM12 2C13.2377 2 14.4247 2.49167 15.2998 3.36684C16.175 4.24201 16.6667 5.42899 16.6667 6.66667C16.6667 7.90434 16.175 9.09133 15.2998 9.9665C14.4247 10.8417 13.2377 11.3333 12 11.3333C10.7623 11.3333 9.57534 10.8417 8.70017 9.9665C7.825 9.09133 7.33333 7.90434 7.33333 6.66667C7.33333 5.42899 7.825 4.24201 8.70017 3.36684C9.57534 2.49167 10.7623 2 12 2ZM12 3.33333C11.1159 3.33333 10.2681 3.68452 9.64298 4.30964C9.01786 4.93477 8.66667 5.78261 8.66667 6.66667C8.66667 7.55072 9.01786 8.39857 9.64298 9.02369C10.2681 9.64881 11.1159 10 12 10C12.8841 10 13.7319 9.64881 14.357 9.02369C14.9821 8.39857 15.3333 7.55072 15.3333 6.66667C15.3333 5.78261 14.9821 4.93477 14.357 4.30964C13.7319 3.68452 12.8841 3.33333 12 3.33333Z" fill="#424C5A"/>
</svg>
