<svg width="24" height="20" viewBox="0 0 24 20" fill="none" xmlns="http://www.w3.org/2000/svg">
<path fill-rule="evenodd" clip-rule="evenodd" d="M24 2.27009C23.3333 3.2547 22.5 4.10256 21.5556 4.78632V5.41539C21.5556 11.8154 16.6111 19.2 7.55556 19.2C4.77778 19.2 2.16667 18.5983 0 17.2308C0.388889 17.2855 0.777778 17.3128 1.16667 17.3128C3.47222 17.3128 5.61111 16.3282 7.27778 15.0154C5.13889 14.988 3.30556 13.5658 2.69444 11.6513C3 11.706 3.30556 11.7333 3.61111 11.7333C4.05556 11.7333 4.5 11.6786 4.91667 11.5692C2.66667 11.1316 0.972222 9.16239 0.972222 6.81026V6.75556C1.63889 7.11111 2.38889 7.32992 3.19444 7.35727C1.86111 6.48205 1 5.00513 1 3.33675C1 2.43419 1.25 1.69573 1.66667 0.984616C4.11111 3.91111 7.72222 5.74359 11.8056 5.96239C11.7222 5.60684 11.6944 5.22393 11.6944 4.84103C11.6944 2.16068 13.8889 0 16.6111 0C18.0278 0 19.3056 0.601709 20.2222 1.53162C21.3333 1.31282 22.3889 0.902564 23.3333 0.355556C22.9722 1.47692 22.1944 2.43419 21.1667 3.0359C22.1667 2.9265 23.1111 2.65299 24 2.27009Z" fill="#299DED"/>
</svg>
