<svg width="71" height="80" viewBox="0 0 71 80" fill="none" xmlns="http://www.w3.org/2000/svg">
<path d="M30.91 30.0303V54.6967C30.91 59.5627 33.8208 61.7872 37.8405 61.7872C39.978 61.7872 42.0303 61.4969 43.9796 60.9881L49.4764 76.597C45.0745 78.776 39.9976 80 34.5139 80C18.2965 80 10.3957 72.3534 10.3957 58.7285V30.0303H0V22.6617L25.5042 0H30.91V12.7907H47.9359L43.9796 30.0303H30.91Z" fill="#0C1523"/>
<path d="M53.6789 54.1176L51.5695 56.7058L63.5228 64.7058L66.5697 58.1176L53.6789 54.1176Z" fill="#0C1523"/>
<path d="M50.6255 33.8619L52.7414 36.2353L63.832 28.0315L58.6441 22.9683L50.6255 33.8619Z" fill="#0C1523"/>
<path d="M55.5539 43.2065L55.7883 46.5007L71 45.6592L69.3444 38.5882L55.5539 43.2065Z" fill="#0C1523"/>
</svg>
