<svg width="24" height="24" viewBox="0 0 24 24" fill="none" xmlns="http://www.w3.org/2000/svg">
<path d="M5 3C4.20435 3 3.44129 3.31607 2.87868 3.87868C2.31607 4.44129 2 5.20435 2 6V19C2 19.7956 2.31607 20.5587 2.87868 21.1213C3.44129 21.6839 4.20435 22 5 22H18C18.7956 22 19.5587 21.6839 20.1213 21.1213C20.6839 20.5587 21 19.7956 21 19V17.23C21.3138 16.9493 21.5651 16.6057 21.7374 16.2214C21.9097 15.8372 21.9991 15.4211 22 15V10C21.9991 9.57893 21.9097 9.16276 21.7374 8.77855C21.5651 8.39435 21.3138 8.05071 21 7.77V6C21 5.20435 20.6839 4.44129 20.1213 3.87868C19.5587 3.31607 18.7956 3 18 3H5ZM5 4H18C18.5304 4 19.0391 4.21071 19.4142 4.58579C19.7893 4.96086 20 5.46957 20 6V7.174C19.679 7.05962 19.3408 7.00078 19 7H13C12.2044 7 11.4413 7.31607 10.8787 7.87868C10.3161 8.44129 10 9.20435 10 10V15C10 15.7956 10.3161 16.5587 10.8787 17.1213C11.4413 17.6839 12.2044 18 13 18H19C19.3408 17.9992 19.679 17.9404 20 17.826V19C20 19.5304 19.7893 20.0391 19.4142 20.4142C19.0391 20.7893 18.5304 21 18 21H5C4.46957 21 3.96086 20.7893 3.58579 20.4142C3.21071 20.0391 3 19.5304 3 19V6C3 5.46957 3.21071 4.96086 3.58579 4.58579C3.96086 4.21071 4.46957 4 5 4ZM13 8H19C19.5304 8 20.0391 8.21071 20.4142 8.58579C20.7893 8.96086 21 9.46957 21 10V15C21 15.5304 20.7893 16.0391 20.4142 16.4142C20.0391 16.7893 19.5304 17 19 17H13C12.4696 17 11.9609 16.7893 11.5858 16.4142C11.2107 16.0391 11 15.5304 11 15V10C11 9.46957 11.2107 8.96086 11.5858 8.58579C11.9609 8.21071 12.4696 8 13 8ZM15.5 10C14.837 10 14.2011 10.2634 13.7322 10.7322C13.2634 11.2011 13 11.837 13 12.5C13 13.163 13.2634 13.7989 13.7322 14.2678C14.2011 14.7366 14.837 15 15.5 15C16.163 15 16.7989 14.7366 17.2678 14.2678C17.7366 13.7989 18 13.163 18 12.5C18 11.837 17.7366 11.2011 17.2678 10.7322C16.7989 10.2634 16.163 10 15.5 10ZM15.5 11C15.697 11 15.892 11.0388 16.074 11.1142C16.256 11.1896 16.4214 11.3001 16.5607 11.4393C16.6999 11.5786 16.8104 11.744 16.8858 11.926C16.9612 12.108 17 12.303 17 12.5C17 12.697 16.9612 12.892 16.8858 13.074C16.8104 13.256 16.6999 13.4214 16.5607 13.5607C16.4214 13.6999 16.256 13.8104 16.074 13.8858C15.892 13.9612 15.697 14 15.5 14C15.1022 14 14.7206 13.842 14.4393 13.5607C14.158 13.2794 14 12.8978 14 12.5C14 12.1022 14.158 11.7206 14.4393 11.4393C14.7206 11.158 15.1022 11 15.5 11Z" fill="#424C5A"/>
</svg>
