<svg width="24" height="24" viewBox="0 0 24 24" fill="none" xmlns="http://www.w3.org/2000/svg">
<path fill-rule="evenodd" clip-rule="evenodd" d="M13.25 24C19.29 23.3732 24 18.2542 24 12.0323C24 5.38702 18.6274 0 12 0C5.37258 0 0 5.38702 0 12.0323C0 17.8179 4.07252 22.6498 9.5 23.803V14.8732H7V11.5309H9.5V8.6064C9.5 6.23895 10.9815 4.01075 14.5 4.01075C15.912 4.01075 17 4.19643 17 4.19643L16.8611 7.35304H14.7083C13.4352 7.35304 13.25 8.04935 13.25 9.02419V11.5309H17L16.7454 14.8732H13.25V24Z" fill="#227AEF"/>
</svg>
