<svg width="38" height="38" viewBox="0 0 38 38" fill="none" xmlns="http://www.w3.org/2000/svg">
<circle cx="19" cy="19" r="18.75" fill="#E1A200"/>
<circle cx="19" cy="18.4828" r="16.1638" fill="#FFE147"/>
<ellipse cx="19" cy="18.4403" rx="18.1903" ry="18.1903" fill="#FFE147"/>
<path d="M18.7951 22.0462V16.003H22.0217L22.9984 11.7792H18.7951V8.64551H17.4606L11.1642 14.1977V16.003H13.7306V23.034C13.7306 26.3721 15.6811 28.2456 19.6848 28.2456C21.0386 28.2456 22.292 27.9457 23.3787 27.4118L22.0217 23.5876C21.5404 23.7123 21.0338 23.7834 20.5061 23.7834C19.5137 23.7834 18.7951 23.2384 18.7951 22.0462Z" fill="#D19700"/>
<path d="M23.6628 16.9957L24.1643 17.5772L26.7929 15.5672L25.5633 14.3267L23.6628 16.9957Z" fill="#D19700"/>
<path d="M24.3865 21.9586L23.8865 22.5927L26.7196 24.5528L27.4417 22.9386L24.3865 21.9586Z" fill="#D19700"/>
<path d="M24.8864 20.0924L24.8309 19.2853L28.0994 18.1537L28.4918 19.8862L24.8864 20.0924Z" fill="#D19700"/>
<path d="M18.7951 21.4865V15.4433H22.0217L22.9984 11.2195H18.7951V8.08582H17.4606L11.1642 13.638V15.4433H13.7306V22.4744C13.7306 25.8125 15.6811 27.6859 19.6848 27.6859C21.0386 27.6859 22.292 27.386 23.3787 26.8521L22.0217 23.0279C21.5404 23.1526 21.0338 23.2237 20.5061 23.2237C19.5137 23.2237 18.7951 22.6787 18.7951 21.4865Z" fill="white"/>
<path d="M23.6628 16.436L24.1643 17.0175L26.7929 15.0075L25.5633 13.767L23.6628 16.436Z" fill="white"/>
<path d="M24.3865 21.3989L23.8865 22.033L26.7196 23.9931L27.4417 22.3789L24.3865 21.3989Z" fill="white"/>
<path d="M24.8864 19.5327L24.8309 18.7256L28.0994 17.594L28.4918 19.3265L24.8864 19.5327Z" fill="white"/>
<path d="M2.34011 19.3879C2.22235 17.129 2.60108 14.8372 3.36491 12.69C4.16056 10.5492 5.3795 8.56939 6.9167 6.88833C10.0038 3.51965 14.485 1.56607 19.0011 1.54309C23.5172 1.56936 28.0015 3.51965 31.0823 6.89161C32.6227 8.56939 33.8384 10.5525 34.6341 12.69C35.4011 14.8405 35.7798 17.129 35.6589 19.3879H35.5952C35.589 17.1344 35.1565 14.9039 34.3222 12.8213C33.4864 10.741 32.2659 8.84855 30.729 7.2495C29.1911 5.65201 27.3635 4.38241 25.3504 3.51308C23.3379 2.64623 21.1787 2.19989 18.9979 2.19989C16.8171 2.19989 14.6579 2.64623 12.6454 3.51308C10.6323 4.38241 8.80466 5.65201 7.26679 7.2495C5.72883 8.84768 4.50826 10.7404 3.67362 12.8213C2.83926 14.9039 2.40683 17.1344 2.40058 19.3879H2.34011Z" fill="#E1A200"/>
</svg>
