<svg width="54" height="54" viewBox="0 0 54 54" fill="none" xmlns="http://www.w3.org/2000/svg">
<path d="M54 27C54 41.9117 41.9117 54 27 54C12.0883 54 0 41.9117 0 27C0 12.0883 12.0883 0 27 0C41.9117 0 54 12.0883 54 27ZM2.11526 27C2.11526 40.7435 13.2565 51.8847 27 51.8847C40.7435 51.8847 51.8847 40.7435 51.8847 27C51.8847 13.2565 40.7435 2.11526 27 2.11526C13.2565 2.11526 2.11526 13.2565 2.11526 27Z" fill="url(#paint0_angular_191_1258)"/>
<path d="M18.3942 22.48L22.5662 32.07H23.0982L27.2422 22.48H25.8142L22.8742 29.606H22.8182L19.8922 22.48H18.3942ZM32.9206 32.112C34.6566 32.112 36.0426 31.118 36.0426 29.396C36.0426 27.87 34.9226 27.17 33.5926 26.596C32.5706 26.134 31.5486 25.77 31.5486 24.846C31.5486 24.16 32.1086 23.586 33.1586 23.586C33.9146 23.586 34.7966 23.852 35.6086 24.454L35.3986 22.858C34.7826 22.522 33.9286 22.34 33.2146 22.34C31.3386 22.34 30.1626 23.404 30.1626 24.916C30.1626 26.4 31.2546 27.058 32.7526 27.716C33.8166 28.192 34.6706 28.556 34.6706 29.48C34.6706 30.32 33.9846 30.866 32.9766 30.866C31.9826 30.866 30.7086 30.39 29.8686 29.55L30.0786 31.216C30.9746 31.86 31.9406 32.112 32.9206 32.112Z" fill="white"/>
<defs>
<radialGradient id="paint0_angular_191_1258" cx="0" cy="0" r="1" gradientUnits="userSpaceOnUse" gradientTransform="translate(27 27) rotate(90) scale(27)">
<stop stop-color="#FFE147"/>
<stop offset="1" stop-color="white"/>
</radialGradient>
</defs>
</svg>
