<svg width="24" height="24" viewBox="0 0 24 24" fill="none" xmlns="http://www.w3.org/2000/svg">
<path d="M11.2183 7.57878C10.3706 6.84405 9.37163 6.46909 8.2309 6.46909C7.59716 6.46909 7.00062 6.5844 6.44501 6.81806L6.445 6.81805L6.44191 6.81938C5.90564 7.05101 5.43824 7.3711 5.04315 7.77972C4.64745 8.17555 4.33528 8.64911 4.10486 9.19569L4.10478 9.19565L4.10187 9.203C3.88324 9.75623 3.77551 10.3496 3.77551 10.9799C3.77551 11.6225 3.88288 12.2227 4.10187 12.7769L4.10179 12.7769L4.10486 12.7842C4.33528 13.3308 4.64696 13.8099 5.04093 14.2179L5.04088 14.218L5.04539 14.2225C5.45285 14.6295 5.92589 14.949 6.46204 15.1806C7.00514 15.4152 7.58938 15.5309 8.21077 15.5309C9.31248 15.5309 10.3167 15.1523 11.2183 14.4194V18.003L11.0938 18.0465L11.0922 18.047C10.5029 18.2563 9.95815 18.4048 9.4571 18.4947L9.45708 18.4945L9.44861 18.4963C8.94739 18.599 8.45441 18.65 7.96928 18.65C6.96832 18.65 6.00737 18.4645 5.08397 18.0934C4.1727 17.7085 3.36539 17.1772 2.65998 16.4988C1.96807 15.8071 1.40901 14.9927 0.983341 14.0525C0.562332 13.1092 0.35 12.0798 0.35 10.9598C0.35 9.83826 0.556197 8.82241 0.963308 7.9071C1.38892 6.96703 1.94737 6.16722 2.63743 5.50351L2.63752 5.50342C3.34251 4.82488 4.15623 4.29985 5.08124 3.92772L5.08125 3.92774L5.08509 3.92615C6.00788 3.54211 6.97506 3.35 7.9894 3.35C8.567 3.35 9.13073 3.41407 9.68116 3.54193L9.68114 3.54205L9.69029 3.54392C10.177 3.64335 10.6862 3.79583 11.2183 4.00275V7.57878ZM13.1271 16.4841C13.9981 17.1999 14.9688 17.5707 16.0343 17.5707C16.6394 17.5707 17.2085 17.4557 17.7373 17.2227C18.2591 16.9929 18.7191 16.6758 19.115 16.2724L19.1151 16.2724L19.1194 16.2678C19.5022 15.8634 19.8047 15.3889 20.0282 14.8481L20.0283 14.8481L20.0311 14.8409C20.2435 14.2926 20.3476 13.6989 20.3476 13.0635C20.3476 12.4402 20.2432 11.8533 20.0311 11.3059L20.0312 11.3059L20.0282 11.2987C19.8047 10.7579 19.5017 10.2889 19.1172 9.89656C18.7333 9.49154 18.2787 9.17392 17.7568 8.94397L17.7568 8.94396L17.7537 8.94261C17.2127 8.71056 16.6318 8.59601 16.0147 8.59601C14.9122 8.59601 13.9467 8.96292 13.1271 9.67976V6.15974C13.6409 5.95616 14.1326 5.80614 14.6023 5.70825L14.6024 5.70838L14.6116 5.70618C15.1444 5.57995 15.69 5.5167 16.249 5.5167C17.2308 5.5167 18.1669 5.70634 19.0604 6.08561L19.0604 6.08563L19.0643 6.08723C19.9599 6.45478 20.7482 6.97347 21.4315 7.64426L21.4315 7.64434C22.1004 8.30051 22.642 9.09161 23.0549 10.022C23.4499 10.9278 23.65 11.9333 23.65 13.0436C23.65 14.1524 23.4439 15.1714 23.0354 16.105C22.6224 17.0354 22.0803 17.8409 21.4096 18.5247C20.726 19.1954 19.9439 19.7203 19.0615 20.1005C18.1674 20.467 17.2373 20.65 16.2686 20.65C15.7991 20.65 15.322 20.5997 14.8368 20.4983L14.8368 20.4982L14.8282 20.4966C14.3431 20.4079 13.8155 20.2612 13.2444 20.0543L13.2428 20.0537L13.1271 20.0124V16.4841Z" stroke="#424C5A" stroke-width="0.7"/>
</svg>
