<svg width="265" height="64" viewBox="0 0 265 64" fill="none" xmlns="http://www.w3.org/2000/svg">
<path d="M15.0139 35.7864V25.3989H24.9783L26.3248 17.089H15.0139V10.9236H12.3882L0 21.8471V25.3989H5.04952V37.7298C5.04952 44.2974 8.88716 47.9832 16.7644 47.9832C19.4575 47.9832 21.9486 47.3801 24.1031 46.3078L26.0555 36.5906C23.9684 38.0649 21.3426 39.2042 18.3803 39.2042C16.4278 39.2042 15.0139 38.1319 15.0139 35.7864Z" fill="#0C1523"/>
<path d="M50.6136 16.4859C46.9106 16.4859 43.8809 18.2283 41.5918 20.9089V0H31.6274V47.4471H41.5918V28.6157C42.8036 26.2031 44.6215 24.9298 46.7759 24.9298C49.8057 24.9298 50.8829 27.0073 50.8829 29.755V47.4471H60.8473V27.4764C60.8473 20.0377 55.9997 16.4859 50.6136 16.4859Z" fill="#0C1523"/>
<path d="M87.3688 17.089V35.8534C86.157 38.266 84.3391 39.6063 82.1847 39.6063C79.1549 39.6063 78.0777 37.5288 78.0777 34.7812V17.089H68.1133V37.0597C68.1133 44.4984 72.9609 48.0503 78.347 48.0503C82.05 48.0503 85.0797 46.3078 87.3688 43.6272V47.4471H97.3332V17.089H87.3688Z" fill="#0C1523"/>
<path d="M125.336 16.6869C121.027 16.2848 117.391 18.0942 114.968 22.1822V17.089H105.003V47.4471H114.968V30.8272C117.661 27.3424 122.374 25.466 126.75 26.2702L125.336 16.6869Z" fill="#0C1523"/>
<path d="M143.018 48.1173C151.366 48.1173 155.945 44.0963 155.945 38.266C155.945 32.5026 151.501 30.6262 146.115 29.0848C141.065 27.6105 139.449 27.2084 139.449 25.9351C139.449 24.9298 140.527 24.3267 143.489 24.3267C147.125 24.3267 151.097 25.466 154.396 27.2754L153.184 18.7644C150.828 17.4241 147.461 16.4859 143.018 16.4859C134.535 16.4859 130.226 20.6408 130.226 26.2031C130.226 31.8325 134.333 33.8429 140.459 35.6524C144.364 36.7916 146.721 37.2607 146.721 38.6681C146.721 39.6733 145.643 40.2764 142.883 40.2764C138.776 40.2764 133.121 38.333 129.822 35.3843L131.303 45.1686C135.006 47.112 138.843 48.1173 143.018 48.1173Z" fill="#0C1523"/>
<path d="M182.544 0V19.5686C180.793 17.8932 178.1 16.4859 174.263 16.4859C165.712 16.4859 160.326 23.9916 160.326 32.3016C160.326 40.5445 165.712 48.1173 174.263 48.1173C177.629 48.1173 180.726 46.3749 182.881 43.8953V48.1173L192.508 46.5759V0H182.544ZM176.956 39.4723C173.185 39.4723 170.425 36.2555 170.425 32.3016C170.425 28.2806 173.185 25.1309 176.956 25.1309C179.178 25.1309 181.332 26.3372 182.544 28.4817V35.9204C181.265 38.1989 179.245 39.4723 176.956 39.4723Z" fill="#0C1523"/>
<path d="M213.74 16.4188C209.364 16.4188 205.998 17.2901 203.574 18.3623L201.352 27.6775C205.19 25.734 208.624 24.9298 212.259 24.9298C215.289 24.9298 216.838 25.9351 216.838 28.5487V29.4869C212.933 29.822 208.556 30.3581 205.729 31.1623C201.42 32.3686 198.053 34.8482 198.053 39.8743C198.053 44.2304 201.891 48.1173 207.21 48.1173C211.586 48.1173 214.885 46.1068 217.443 43.4932V48.1843L226.263 46.4419V27.2754C226.263 20.2387 221.281 16.4188 213.74 16.4188ZM208.018 38.199C208.018 36.5236 209.297 35.9204 211.519 35.3843C212.596 35.1162 214.818 34.8482 216.838 34.6471V38.8691C215.087 40.0084 213.337 40.8796 211.317 40.8796C209.499 40.8796 208.018 40.0084 208.018 38.199Z" fill="#0C1523"/>
<path d="M254.699 17.089C251.467 23.9246 248.842 30.8272 247.495 34.5801C246.35 31.0953 244.533 26.5382 240.156 17.089H229.047L242.58 44.9675L233.962 64H244.061L265 17.089H254.699Z" fill="#0C1523"/>
</svg>
