<svg width="24" height="24" viewBox="0 0 24 24" fill="none" xmlns="http://www.w3.org/2000/svg">
<path d="M11.4803 10.2583V17.0416C11.4803 18.3797 12.2788 18.9915 13.3817 18.9915C13.9681 18.9915 14.5311 18.9116 15.0659 18.7717L16.574 23.0642C15.3663 23.6634 13.9735 24 12.469 24C8.01971 24 5.85211 21.8972 5.85211 18.1504V10.2583H3V8.23198L9.99716 2H11.4803V5.51744H16.1514L15.0659 10.2583H11.4803Z" fill="#0C1523"/>
<path d="M17.8734 16.8575L17.3147 17.56L20.4809 19.7313L21.288 17.9432L17.8734 16.8575Z" fill="#0C1523"/>
<path d="M17.0646 11.3597L17.6251 12.0039L20.5628 9.77725L19.1887 8.40299L17.0646 11.3597Z" fill="#0C1523"/>
<path d="M18.3701 13.896L18.4322 14.7901L22.4615 14.5617L22.023 12.6425L18.3701 13.896Z" fill="#0C1523"/>
</svg>
