<svg width="24" height="24" viewBox="0 0 24 24" fill="none" xmlns="http://www.w3.org/2000/svg">
<path fill-rule="evenodd" clip-rule="evenodd" d="M9.48026 9.25833H13.269L13.8965 6.51744H9.48026V3H9.37792L3 8.68046V9.25833H5.85211V18.1504C5.85211 19.8302 6.33246 20.9868 7.16319 21.7389C8.01117 22.5066 9.38562 23 11.469 23C12.4934 23 13.4527 22.8268 14.3206 22.5134L13.4097 19.9206C13.0756 19.9667 12.7326 19.9915 12.3817 19.9915C11.6528 19.9915 10.9026 19.7879 10.3291 19.2438C9.74587 18.6904 9.48026 17.9131 9.48026 17.0416V9.25833ZM14.0659 18.7717L15.574 23.0642C14.3663 23.6634 12.9735 24 11.469 24C7.01971 24 4.85211 21.8972 4.85211 18.1504V10.2583H2V8.23198L8.99716 2H10.4803V5.51744H15.1514L14.0659 10.2583H10.4803V17.0416C10.4803 18.3797 11.2788 18.9915 12.3817 18.9915C12.9681 18.9915 13.5311 18.9116 14.0659 18.7717ZM19.4809 19.7313L20.288 17.9432L16.8734 16.8575L16.3147 17.56L19.4809 19.7313ZM16.6251 12.0039L16.0646 11.3597L18.1887 8.40299L19.5628 9.77725L16.6251 12.0039ZM17.4322 14.7901L17.3701 13.896L21.023 12.6425L21.4615 14.5617L17.4322 14.7901Z" fill="#424C5A"/>
</svg>
